<?xml version="1.0" encoding="UTF-8" standalone="no"?>
<svg
   xmlns:dc="http://purl.org/dc/elements/1.1/"
   xmlns:cc="http://creativecommons.org/ns#"
   xmlns:rdf="http://www.w3.org/1999/02/22-rdf-syntax-ns#"
   xmlns:svg="http://www.w3.org/2000/svg"
   xmlns="http://www.w3.org/2000/svg"
   xmlns:sodipodi="http://sodipodi.sourceforge.net/DTD/sodipodi-0.dtd"
   xmlns:inkscape="http://www.inkscape.org/namespaces/inkscape"
   width="174.052mm"
   height="87.380997mm"
   viewBox="0 0 174.052 87.380997"
   version="1.1"
   id="svg8"
   inkscape:version="1.0.1 (0767f8302a, 2020-10-17)"
   sodipodi:docname="logo.svg"
   inkscape:export-filename="/home/sillas/NetBeansProjects/radio_on_air/src/components/logo.png"
   inkscape:export-xdpi="96"
   inkscape:export-ydpi="96">
  <defs
     id="defs2">
    <rect
       x="-511.18619"
       y="270.099"
       width="111.66181"
       height="59.891556"
       id="rect16" />
  </defs>
  <sodipodi:namedview
     id="base"
     pagecolor="#ffffff"
     bordercolor="#666666"
     borderopacity="1.0"
     inkscape:pageopacity="0.0"
     inkscape:pageshadow="2"
     inkscape:zoom="0.69999999"
     inkscape:cx="486.18095"
     inkscape:cy="245.64736"
     inkscape:document-units="mm"
     inkscape:current-layer="layer1"
     inkscape:document-rotation="0"
     showgrid="false"
     inkscape:window-width="1149"
     inkscape:window-height="666"
     inkscape:window-x="217"
     inkscape:window-y="27"
     inkscape:window-maximized="0" />
  <metadata
     id="metadata5">
    <rdf:RDF>
      <cc:Work
         rdf:about="">
        <dc:format>image/svg+xml</dc:format>
        <dc:type
           rdf:resource="http://purl.org/dc/dcmitype/StillImage" />
        <dc:title></dc:title>
      </cc:Work>
    </rdf:RDF>
  </metadata>
  <g
     inkscape:label="Layer 1"
     inkscape:groupmode="layer"
     id="layer1">
    <rect
       style="fill:#aa0000;fill-opacity:1;fill-rule:evenodd;stroke-width:0.196171"
       id="rect10"
       width="174.05171"
       height="87.380638"
       x="0"
       y="0"
       ry="7.3082428" />
    <rect
       style="fill:#000000;fill-rule:evenodd;stroke-width:0.187496"
       id="rect12"
       width="168.71111"
       height="82.350143"
       x="2.7373104"
       y="2.460083"
       ry="6.8875065" />
    <text
       xml:space="preserve"
       id="text14"
       style="font-style:normal;font-weight:normal;font-size:10.5833px;line-height:1.25;font-family:sans-serif;white-space:pre;shape-inside:url(#rect16);fill:#d40000;fill-opacity:1;stroke:none;"
       inkscape:transform-center-x="206.19464"
       inkscape:transform-center-y="-226.44122"
       transform="matrix(3.5076809,0,0,7.6581218,1806.7125,-2071.0969)"><tspan
         x="-511.18555"
         y="279.96845"><tspan
           style="font-style:normal;font-variant:normal;font-weight:normal;font-stretch:normal;font-size:10.5833px;font-family:'Ubuntu Condensed';-inkscape-font-specification:'Ubuntu Condensed, Normal';font-variant-ligatures:normal;font-variant-caps:normal;font-variant-numeric:normal;font-variant-east-asian:normal;fill:#d40000">ON AIR</tspan></tspan></text>
    <path
       style="fill:#aa0000;fill-opacity:1;stroke-width:0.299621"
       d="m 22.936749,73.537779 c -4.816552,-2.2388 -7.375407,-13.89647 -6.94743,-31.651231 0.316651,-13.136985 1.915519,-20.609155 5.188884,-24.249924 3.868445,-4.302637 8.318561,-1.530344 10.589163,6.596733 2.450813,8.772072 2.809181,27.639372 0.725159,38.177052 -1.019281,5.15393 -2.898499,9.21638 -4.964214,10.73153 -1.016016,0.74521 -3.398101,0.95057 -4.591562,0.39584 z m 3.832903,-6.41188 c 2.456989,-2.21996 3.802203,-10.08961 3.802203,-22.243374 0,-15.122026 -1.958609,-23.070893 -5.684673,-23.070893 -4.055522,0 -5.983495,9.008179 -5.611068,26.21693 0.227381,10.506887 1.099841,15.615077 3.13808,18.373147 0.404451,0.5473 1.024555,1.11687 1.378011,1.26574 0.853954,0.35965 2.263846,0.10321 2.977447,-0.54155 z"
       id="path26" />
    <path
       style="fill:#aa0000;fill-opacity:1;stroke-width:0.299621"
       d="M 39.26615,44.882525 V 17.017678 h 1.33421 c 1.285135,0 1.345986,0.04134 1.654152,1.123584 1.192081,4.186486 5.317999,21.321428 6.691536,27.789939 0.909791,4.284598 1.834303,8.599158 2.054471,9.587908 0.350252,1.57287 0.409949,-0.72256 0.477339,-18.35185 l 0.07701,-20.149581 h 1.495999 1.496005 v 27.864847 27.864844 h -1.275025 -1.275011 l -1.458523,-7.26583 c -2.554811,-12.72719 -7.672295,-35.076343 -8.138499,-35.542538 -0.0756,-0.07559 -0.137449,9.525362 -0.137449,21.335463 v 21.472905 h -1.49811 -1.498109 z"
       id="path28" />
    <path
       style="fill:#aa0000;fill-opacity:1;stroke-width:0.299621"
       d="m 65.932509,71.881879 c 0,-3.49528 3.879716,-36.168441 5.841154,-49.191453 0.40786,-2.708031 0.743583,-5.09223 0.746048,-5.29822 0.0034,-0.253521 0.535063,-0.374528 1.646694,-0.374528 1.458284,0 1.659228,0.07551 1.794089,0.67415 0.678734,3.012693 3.982511,29.034461 5.392245,42.471421 0.57919,5.52054 1.13008,10.61036 1.2242,11.31073 l 0.17112,1.27339 h -1.51648 c -0.834051,0 -1.530403,-0.0337 -1.547453,-0.0749 -0.01708,-0.0412 -0.320415,-3.24341 -0.674152,-7.11602 l -0.643159,-7.04109 h -4.194706 -4.194707 l -0.242506,2.69659 c -0.133384,1.48313 -0.404464,4.65164 -0.60241,7.04113 l -0.359898,4.34451 -1.420037,0.0913 c -1.398196,0.0899 -1.420042,0.0775 -1.420042,-0.80701 z m 11.684706,-19.88333 c -0.0014,-1.713484 -3.139973,-26.536002 -3.386358,-26.782399 -0.07515,-0.07514 -0.217955,0.307866 -0.317361,0.851124 -0.255731,1.397606 -2.812352,21.815156 -3.05944,24.433164 l -0.20503,2.172261 h 3.484378 c 3.413832,0 3.484358,-0.0137 3.483811,-0.67415 z"
       id="path30" />
    <path
       style="fill:#aa0000;fill-opacity:1;stroke-width:0.299621"
       d="M 86.906049,44.882525 V 17.017678 h 1.49811 1.49811 v 27.864847 27.864844 h -1.49811 -1.49811 z"
       id="path32" />
    <path
       style="fill:#aa0000;fill-opacity:1;stroke-width:0.299621"
       d="M 96.493959,45.166858 V 17.586345 l 1.12358,-0.472262 c 1.51102,-0.635107 4.532631,-0.853083 5.840811,-0.421348 3.61013,1.191453 5.77067,6.424754 6.13346,14.85661 0.28913,6.719891 -0.82524,12.890082 -2.86751,15.877273 l -0.81754,1.195797 0.98436,4.047594 c 1.02726,4.22402 3.49686,16.19268 3.84908,18.65416 l 0.20365,1.4232 h -1.51856 -1.51854 l -0.19603,-1.12358 c -0.89841,-5.1496 -4.34362,-20.588172 -4.65675,-20.867664 -0.065,-0.05798 -0.89341,-0.03828 -1.84097,0.04383 l -1.722831,0.149251 v 10.899093 10.89911 h -1.49811 -1.4981 z m 6.423581,-0.445543 c 2.20132,-1.044599 3.1382,-3.62536 3.37914,-9.308279 0.26619,-6.278788 -0.64014,-10.616698 -2.52851,-12.102097 -0.87743,-0.690184 -2.47326,-1.041986 -3.52697,-0.77752 l -0.751031,0.188494 v 11.23012 11.230112 h 1.228121 c 0.67546,0 1.66512,-0.207378 2.19925,-0.46083 z"
       id="path34" />
    <rect
       style="fill:#aa0000;fill-opacity:1;stroke-width:0.104868"
       id="rect36"
       width="21.282085"
       height="36.332272"
       x="134.07005"
       y="16.860523"
       ry="10.641043" />
    <rect
       style="fill:#aa0000;fill-opacity:1;stroke-width:0.0840043"
       id="rect40"
       width="5.111341"
       height="13.695536"
       x="141.9879"
       y="57.689976"
       ry="2.9412036" />
    <rect
       style="fill:#aa0000;fill-opacity:1;stroke-width:0.0753481"
       id="rect42"
       width="21.282085"
       height="5.2652273"
       x="134.07187"
       y="66.42601"
       ry="2.1129563" />
    <path
       id="path44"
       style="fill:#aa0000;fill-opacity:1;stroke-width:0.105373"
       d="m 127.29195,44.837852 v 0.01761 c -3e-5,9.246607 7.65928,16.742487 17.10756,16.742567 9.44837,4e-5 17.10779,-7.49588 17.10778,-16.742567 v 0 l -4.46323,-0.01761 v 2.09e-4 c 1e-5,6.354801 -5.62576,11.506378 -12.56548,11.506358 -6.93973,2e-5 -12.56551,-5.151557 -12.5655,-11.506358 v -2.09e-4 z"
       sodipodi:nodetypes="cscsccscscc" />
    <path
       id="path67"
       style="fill:#aa0000;fill-opacity:1;stroke-width:0.185125"
       d="m 159.28211,38.574453 c -0.62935,0 -1.47385,0.527028 -1.86369,1.162968 -0.3184,0.519409 -0.35765,0.978406 -0.36188,6.166711 h 4.45075 c -0.004,-5.191951 -0.0443,-5.649367 -0.36148,-6.166711 -0.38984,-0.63594 -1.23434,-1.162968 -1.8637,-1.162968 z" />
    <path
       id="path73"
       style="fill:#aa0000;fill-opacity:1;stroke-width:0.18896"
       d="m 129.61067,38.766592 c -0.65571,0 -1.53554,0.527027 -1.9417,1.162967 -0.33173,0.51941 -0.37263,0.978407 -0.37702,6.166712 h 4.63701 c -0.004,-5.191951 -0.0462,-5.649367 -0.3766,-6.166712 -0.40616,-0.63594 -1.28601,-1.162967 -1.94169,-1.162967 z" />
  </g>
</svg>
